<svg width="53" height="40" viewBox="0 0 53 40" fill="none" xmlns="http://www.w3.org/2000/svg">
    <path d="M31.0956 39.3113C32.0086 40.2296 33.4958 40.2296 34.4088 39.3113L51.9764 21.6422C52.8801 20.7333 52.8801 19.2667 51.9764 18.3578L34.4088 0.688674C33.4958 -0.229562 32.0086 -0.229558 31.0956 0.688683L26.041 5.77255C30.742 8.77153 33.8582 14.023 33.8582 20.0002C33.8582 25.9773 30.7421 31.2287 26.0413 34.2277L31.0956 39.3113Z" fill="#5EC5FD"/>
    <path fill-rule="evenodd" clip-rule="evenodd" d="M26.041 5.75235L14.6995 17.1596C13.1482 18.7198 13.1482 21.2398 14.6995 22.8001L26.0413 34.2075C23.4107 35.8858 20.2839 36.8586 16.9291 36.8586C7.57943 36.8586 -8.17305e-07 29.3018 0 19.98C8.17305e-07 10.6582 7.57943 3.10139 16.9291 3.10139C20.2838 3.10139 23.4105 4.07422 26.041 5.75235Z" fill="#F24D0D"/>
</svg>